<mxfile host="app.diagrams.net" modified="2020-09-08T17:49:38.066Z" agent="5.0 (Macintosh; Intel Mac OS X 10_15_6) AppleWebKit/605.1.15 (KHTML, like Gecko) Version/13.1.2 Safari/605.1.15" etag="nYpzIA4t8Z2ig_gdGN4-" version="13.6.6" type="github">
  <diagram id="ySMFe3_gX-_ISPQS6p1n" name="Page-1">
    <mxGraphModel dx="589" dy="566" grid="1" gridSize="10" guides="1" tooltips="1" connect="1" arrows="1" fold="1" page="1" pageScale="1" pageWidth="827" pageHeight="1169" math="0" shadow="0">
      <root>
        <mxCell id="0" />
        <mxCell id="1" parent="0" />
        <mxCell id="FrXNFoGFIZmFjsdvUsrJ-1" value="" style="rounded=1;whiteSpace=wrap;html=1;fillColor=#f5f5f5;strokeColor=#666666;fontColor=#333333;" vertex="1" parent="1">
          <mxGeometry x="60" y="50" width="670" height="560" as="geometry" />
        </mxCell>
        <mxCell id="FrXNFoGFIZmFjsdvUsrJ-2" value="&lt;font style=&quot;font-size: 21px&quot;&gt;Covid 19 Tracker&amp;nbsp;&lt;/font&gt;" style="text;html=1;strokeColor=none;fillColor=none;align=center;verticalAlign=middle;whiteSpace=wrap;rounded=0;" vertex="1" parent="1">
          <mxGeometry x="100" y="90" width="220" height="20" as="geometry" />
        </mxCell>
        <mxCell id="FrXNFoGFIZmFjsdvUsrJ-3" value="Worldwide" style="rounded=0;whiteSpace=wrap;html=1;" vertex="1" parent="1">
          <mxGeometry x="365" y="90" width="120" height="20" as="geometry" />
        </mxCell>
        <mxCell id="FrXNFoGFIZmFjsdvUsrJ-4" value="" style="rounded=1;whiteSpace=wrap;html=1;" vertex="1" parent="1">
          <mxGeometry x="100" y="140" width="120" height="60" as="geometry" />
        </mxCell>
        <mxCell id="FrXNFoGFIZmFjsdvUsrJ-5" value="&lt;font style=&quot;font-size: 10px&quot;&gt;CoronaVirus cases&lt;/font&gt;" style="text;html=1;strokeColor=none;fillColor=none;align=center;verticalAlign=middle;whiteSpace=wrap;rounded=0;" vertex="1" parent="1">
          <mxGeometry x="105" y="140" width="110" height="20" as="geometry" />
        </mxCell>
        <mxCell id="FrXNFoGFIZmFjsdvUsrJ-6" value="&lt;font style=&quot;font-size: 10px&quot;&gt;+2000&lt;/font&gt;" style="text;html=1;strokeColor=none;fillColor=none;align=center;verticalAlign=middle;whiteSpace=wrap;rounded=0;" vertex="1" parent="1">
          <mxGeometry x="130" y="160" width="40" height="20" as="geometry" />
        </mxCell>
        <mxCell id="FrXNFoGFIZmFjsdvUsrJ-7" value="&lt;font style=&quot;font-size: 10px&quot;&gt;1.2M Total&lt;/font&gt;" style="text;html=1;strokeColor=none;fillColor=none;align=center;verticalAlign=middle;whiteSpace=wrap;rounded=0;" vertex="1" parent="1">
          <mxGeometry x="120" y="180" width="60" height="20" as="geometry" />
        </mxCell>
        <mxCell id="FrXNFoGFIZmFjsdvUsrJ-11" value="" style="rounded=1;whiteSpace=wrap;html=1;" vertex="1" parent="1">
          <mxGeometry x="240" y="140" width="120" height="60" as="geometry" />
        </mxCell>
        <mxCell id="FrXNFoGFIZmFjsdvUsrJ-12" value="&lt;font style=&quot;font-size: 10px&quot;&gt;+2000&lt;/font&gt;" style="text;html=1;strokeColor=none;fillColor=none;align=center;verticalAlign=middle;whiteSpace=wrap;rounded=0;" vertex="1" parent="1">
          <mxGeometry x="270" y="160" width="50" height="20" as="geometry" />
        </mxCell>
        <mxCell id="FrXNFoGFIZmFjsdvUsrJ-13" value="&lt;font style=&quot;font-size: 10px&quot;&gt;1.2M Total&lt;/font&gt;" style="text;html=1;strokeColor=none;fillColor=none;align=center;verticalAlign=middle;whiteSpace=wrap;rounded=0;" vertex="1" parent="1">
          <mxGeometry x="260" y="180" width="60" height="20" as="geometry" />
        </mxCell>
        <mxCell id="FrXNFoGFIZmFjsdvUsrJ-15" value="" style="rounded=1;whiteSpace=wrap;html=1;" vertex="1" parent="1">
          <mxGeometry x="370" y="140" width="120" height="60" as="geometry" />
        </mxCell>
        <mxCell id="FrXNFoGFIZmFjsdvUsrJ-16" value="&lt;font style=&quot;font-size: 10px&quot;&gt;+2000&lt;/font&gt;" style="text;html=1;strokeColor=none;fillColor=none;align=center;verticalAlign=middle;whiteSpace=wrap;rounded=0;" vertex="1" parent="1">
          <mxGeometry x="400" y="160" width="50" height="20" as="geometry" />
        </mxCell>
        <mxCell id="FrXNFoGFIZmFjsdvUsrJ-17" value="&lt;font style=&quot;font-size: 10px&quot;&gt;1.2M Total&lt;/font&gt;" style="text;html=1;strokeColor=none;fillColor=none;align=center;verticalAlign=middle;whiteSpace=wrap;rounded=0;" vertex="1" parent="1">
          <mxGeometry x="390" y="180" width="80" height="20" as="geometry" />
        </mxCell>
        <mxCell id="FrXNFoGFIZmFjsdvUsrJ-18" value="Recovered" style="text;html=1;strokeColor=none;fillColor=none;align=center;verticalAlign=middle;whiteSpace=wrap;rounded=0;" vertex="1" parent="1">
          <mxGeometry x="275" y="140" width="40" height="20" as="geometry" />
        </mxCell>
        <mxCell id="FrXNFoGFIZmFjsdvUsrJ-19" value="Deaths" style="text;html=1;strokeColor=none;fillColor=none;align=center;verticalAlign=middle;whiteSpace=wrap;rounded=0;" vertex="1" parent="1">
          <mxGeometry x="400" y="140" width="40" height="20" as="geometry" />
        </mxCell>
        <mxCell id="FrXNFoGFIZmFjsdvUsrJ-21" value="" style="rounded=1;whiteSpace=wrap;html=1;" vertex="1" parent="1">
          <mxGeometry x="100" y="220" width="400" height="330" as="geometry" />
        </mxCell>
        <mxCell id="FrXNFoGFIZmFjsdvUsrJ-22" value="" style="shape=image;html=1;verticalAlign=top;verticalLabelPosition=bottom;labelBackgroundColor=#ffffff;imageAspect=0;aspect=fixed;image=https://cdn0.iconfinder.com/data/icons/kameleon-free-pack-rounded/110/Application-Map-128.png" vertex="1" parent="1">
          <mxGeometry x="220" y="321" width="128" height="128" as="geometry" />
        </mxCell>
        <mxCell id="FrXNFoGFIZmFjsdvUsrJ-23" value="" style="rounded=1;whiteSpace=wrap;html=1;" vertex="1" parent="1">
          <mxGeometry x="530" y="70" width="180" height="470" as="geometry" />
        </mxCell>
        <mxCell id="FrXNFoGFIZmFjsdvUsrJ-24" value="Case by country" style="text;html=1;strokeColor=none;fillColor=none;align=center;verticalAlign=middle;whiteSpace=wrap;rounded=0;" vertex="1" parent="1">
          <mxGeometry x="550" y="80" width="90" height="20" as="geometry" />
        </mxCell>
        <mxCell id="FrXNFoGFIZmFjsdvUsrJ-25" value="WorldWide cases" style="text;html=1;strokeColor=none;fillColor=none;align=center;verticalAlign=middle;whiteSpace=wrap;rounded=0;" vertex="1" parent="1">
          <mxGeometry x="530" y="290" width="120" height="20" as="geometry" />
        </mxCell>
        <mxCell id="FrXNFoGFIZmFjsdvUsrJ-26" value="" style="fillColor=#10739E;strokeColor=none;" vertex="1" parent="1">
          <mxGeometry x="540" y="340" width="30" height="100" as="geometry" />
        </mxCell>
        <mxCell id="FrXNFoGFIZmFjsdvUsrJ-27" value="" style="shape=mxgraph.arrows2.arrow;dy=0.4;dx=16;notch=0;direction=north;fillColor=#1699D3;strokeColor=none;" vertex="1" parent="FrXNFoGFIZmFjsdvUsrJ-26">
          <mxGeometry x="3" y="30" width="24" height="70" as="geometry" />
        </mxCell>
        <mxCell id="FrXNFoGFIZmFjsdvUsrJ-28" value="Label" style="text;html=1;align=center;verticalAlign=middle;whiteSpace=wrap;fontColor=#FFFFFF;fontSize=10;" vertex="1" parent="FrXNFoGFIZmFjsdvUsrJ-26">
          <mxGeometry width="30" height="20" as="geometry" />
        </mxCell>
        <mxCell id="FrXNFoGFIZmFjsdvUsrJ-29" value="" style="fillColor=#F2931E;strokeColor=none;" vertex="1" parent="1">
          <mxGeometry x="575" y="320" width="30" height="120" as="geometry" />
        </mxCell>
        <mxCell id="FrXNFoGFIZmFjsdvUsrJ-30" value="" style="shape=mxgraph.arrows2.arrow;dy=0.4;dx=16;notch=0;direction=south;fillColor=#F5AB50;strokeColor=none;" vertex="1" parent="FrXNFoGFIZmFjsdvUsrJ-29">
          <mxGeometry x="3" width="24" height="80" as="geometry" />
        </mxCell>
        <mxCell id="FrXNFoGFIZmFjsdvUsrJ-31" value="Label" style="text;html=1;align=center;verticalAlign=middle;whiteSpace=wrap;fontColor=#FFFFFF;fontSize=10;" vertex="1" parent="FrXNFoGFIZmFjsdvUsrJ-29">
          <mxGeometry width="30" height="20" as="geometry" />
        </mxCell>
        <mxCell id="FrXNFoGFIZmFjsdvUsrJ-32" value="" style="fillColor=#AE4132;strokeColor=none;" vertex="1" parent="1">
          <mxGeometry x="610" y="310" width="30" height="130" as="geometry" />
        </mxCell>
        <mxCell id="FrXNFoGFIZmFjsdvUsrJ-33" value="" style="shape=mxgraph.arrows2.arrow;dy=0.4;dx=16;notch=0;direction=north;fillColor=#E85642;strokeColor=none;" vertex="1" parent="FrXNFoGFIZmFjsdvUsrJ-32">
          <mxGeometry x="3" y="80" width="24" height="50" as="geometry" />
        </mxCell>
        <mxCell id="FrXNFoGFIZmFjsdvUsrJ-34" value="Label" style="text;html=1;align=center;verticalAlign=middle;whiteSpace=wrap;fontColor=#FFFFFF;fontSize=10;" vertex="1" parent="FrXNFoGFIZmFjsdvUsrJ-32">
          <mxGeometry width="30" height="20" as="geometry" />
        </mxCell>
        <mxCell id="FrXNFoGFIZmFjsdvUsrJ-35" value="" style="fillColor=#12AAB5;strokeColor=none;" vertex="1" parent="1">
          <mxGeometry x="645" y="360" width="30" height="80" as="geometry" />
        </mxCell>
        <mxCell id="FrXNFoGFIZmFjsdvUsrJ-36" value="" style="shape=mxgraph.arrows2.arrow;dy=0.4;dx=16;notch=0;direction=south;fillColor=#64BBE2;strokeColor=none;" vertex="1" parent="FrXNFoGFIZmFjsdvUsrJ-35">
          <mxGeometry x="3" width="24" height="30" as="geometry" />
        </mxCell>
        <mxCell id="FrXNFoGFIZmFjsdvUsrJ-37" value="Label" style="text;html=1;align=center;verticalAlign=middle;whiteSpace=wrap;fontColor=#FFFFFF;fontSize=10;" vertex="1" parent="FrXNFoGFIZmFjsdvUsrJ-35">
          <mxGeometry width="30" height="20" as="geometry" />
        </mxCell>
        <mxCell id="FrXNFoGFIZmFjsdvUsrJ-38" value="" style="fillColor=#23445D;strokeColor=none;" vertex="1" parent="1">
          <mxGeometry x="680" y="370" width="30" height="70" as="geometry" />
        </mxCell>
        <mxCell id="FrXNFoGFIZmFjsdvUsrJ-39" value="" style="shape=mxgraph.arrows2.arrow;dy=0.4;dx=16;notch=0;direction=north;fillColor=#2F5B7C;strokeColor=none;" vertex="1" parent="FrXNFoGFIZmFjsdvUsrJ-38">
          <mxGeometry x="3" y="10" width="24" height="60" as="geometry" />
        </mxCell>
        <mxCell id="FrXNFoGFIZmFjsdvUsrJ-40" value="Label" style="text;html=1;align=center;verticalAlign=middle;whiteSpace=wrap;fontColor=#FFFFFF;fontSize=10;" vertex="1" parent="FrXNFoGFIZmFjsdvUsrJ-38">
          <mxGeometry width="30" height="20" as="geometry" />
        </mxCell>
        <mxCell id="FrXNFoGFIZmFjsdvUsrJ-41" value="&lt;table border=&quot;1&quot; width=&quot;100%&quot; height=&quot;100%&quot; cellpadding=&quot;4&quot; style=&quot;width:100%;height:100%;border-collapse:collapse;&quot;&gt;&lt;tr&gt;&lt;th align=&quot;center&quot;&gt;&lt;b&gt;Title&lt;/b&gt;&lt;/th&gt;&lt;/tr&gt;&lt;tr&gt;&lt;td align=&quot;center&quot;&gt;Section 1.1&#xa;Section 1.2&#xa;Section 1.3&lt;/td&gt;&lt;/tr&gt;&lt;tr&gt;&lt;td align=&quot;center&quot;&gt;Section 2.1&#xa;Section 2.2&#xa;Section 2.3&lt;/td&gt;&lt;/tr&gt;&lt;/table&gt;" style="text;html=1;strokeColor=none;fillColor=none;overflow=fill;" vertex="1" parent="1">
          <mxGeometry x="550" y="120" width="120" height="140" as="geometry" />
        </mxCell>
      </root>
    </mxGraphModel>
  </diagram>
</mxfile>
